. 
  
http://www.torrentday.com/        :     The Hottest Private Tracker On The Net!!!
 
http://www.torrentday.com          :     Once & For all ;)


               www . TorrentDay . Com 

(((((((((((((= Enjoy No RAR releases =))))))))))))))))))))


...................................NFO:....................................

.For.Colored.Girls.DVDRiP.XViD.AC3.NiTR0

source : Retail R1 NTSC DVD5

General
Complete name                    : For.Colored.Girls.DVDRiP.XViD.AC3.NiTR0
Format                           : AVI
Format/Info                      : Audio Video Interleave
File size                        : 2.05 GiB
Duration                         : 2h 13mn
Overall bit rate                 : 2 197 Kbps

Video
ID                               : 0
Format                           : MPEG-4 Visual
Format profile                   : Advanced Simple@L5
Format settings, BVOP            : 2
Format settings, QPel            : No
Format settings, GMC             : No warppoints
Format settings, Matrix          : Default (H.263)
Muxing mode                      : Packed bitstream
Codec ID                         : XVID
Duration                         : 2h 13mn
Bit rate                         : 1 744 Kbps
Width                            : 720 pixels
Height                           : 400 pixels
Display aspect ratio             : 16:9
Frame rate                       : 23.976 fps
Scan type                        : Progressive
Stream size                      : 1.63 GiB (79%)

Audio
Format                           : AC-3
Mode extension                   : CM (complete main)
Duration                         : 2h 13mn
Bit rate mode                    : Constant
Bit rate                         : 448 Kbps
Channel(s)                       : 6 channels
Channel positions                : Front: L C R, Side: L R, LFE
Sampling rate                    : 48.0 KHz
Stream size                      : 428 MiB (20%)

Screens:
[img]http://img684.imageshack.us/img684/6346/21007774.png[/img]
[img]http://img684.imageshack.us/img684/6028/74215250.png[/img]
[img]http://img211.imageshack.us/img211/2998/44432726.png[/img]
[img]http://img211.imageshack.us/img211/7386/41703138.png[/img]